<?xml version="1.0" encoding="UTF-8" standalone="no"?>
<!-- Created with Inkscape (http://www.inkscape.org/) -->

<svg
   width="136.7744mm"
   height="81.739372mm"
   viewBox="0 0 136.7744 81.739373"
   version="1.1"
   id="svg1"
   xml:space="preserve"
   inkscape:version="1.4.3 (0d15f75042, 2025-12-25)"
   sodipodi:docname="fptk-logo.svg"
   inkscape:export-filename="fptk-logo.png"
   inkscape:export-xdpi="96.873718"
   inkscape:export-ydpi="96.873718"
   xmlns:inkscape="http://www.inkscape.org/namespaces/inkscape"
   xmlns:sodipodi="http://sodipodi.sourceforge.net/DTD/sodipodi-0.dtd"
   xmlns:xlink="http://www.w3.org/1999/xlink"
   xmlns="http://www.w3.org/2000/svg"
   xmlns:svg="http://www.w3.org/2000/svg"><sodipodi:namedview
     id="namedview1"
     pagecolor="#ffffff"
     bordercolor="#000000"
     borderopacity="0.25"
     inkscape:showpageshadow="2"
     inkscape:pageopacity="0.0"
     inkscape:pagecheckerboard="0"
     inkscape:deskcolor="#d1d1d1"
     inkscape:document-units="mm"
     inkscape:zoom="1.0633188"
     inkscape:cx="247.80904"
     inkscape:cy="81.819303"
     inkscape:window-width="1920"
     inkscape:window-height="1052"
     inkscape:window-x="0"
     inkscape:window-y="0"
     inkscape:window-maximized="1"
     inkscape:current-layer="layer1" /><defs
     id="defs1"><linearGradient
       id="linearGradient20"
       inkscape:collect="always"><stop
         style="stop-color:#007dff;stop-opacity:1;"
         offset="0"
         id="stop20" /><stop
         style="stop-color:#00ff7d;stop-opacity:1;"
         offset="1"
         id="stop21" /></linearGradient><linearGradient
       id="linearGradient5"
       inkscape:collect="always"><stop
         style="stop-color:#007dff;stop-opacity:1;"
         offset="0"
         id="stop6" /><stop
         style="stop-color:#00ff7d;stop-opacity:1;"
         offset="1"
         id="stop7" /></linearGradient><linearGradient
       inkscape:collect="always"
       xlink:href="#linearGradient5"
       id="linearGradient7"
       x1="42.522381"
       y1="157.99847"
       x2="169.52112"
       y2="157.99847"
       gradientUnits="userSpaceOnUse"
       gradientTransform="matrix(1,0,-0.26794919,1,42.335566,0)" /><linearGradient
       inkscape:collect="always"
       xlink:href="#linearGradient20"
       id="linearGradient21"
       x1="77.420961"
       y1="181.4913"
       x2="181.96347"
       y2="181.4913"
       gradientUnits="userSpaceOnUse" /></defs><g
     inkscape:label="Layer 1"
     inkscape:groupmode="layer"
     id="layer1"
     transform="translate(-45.189077,-117.1288)"><g
       id="g20"
       inkscape:label="Logo with text"><path
         style="fill:url(#linearGradient7);stroke:none;stroke-width:1;stroke-dasharray:none;stroke-opacity:1"
         d="m 65.053546,177.48375 5.781268,-21.38442 0.85907,-1.177 c 0.561197,-0.76889 1.329991,-1.53475 2.217216,-2.20876 1.766149,-1.3417 3.333205,-1.82506 5.916924,-1.82506 h 1.777779 l -1.784225,6.84441 -1.784221,6.8444 1.061125,0.63639 c 1.841732,1.10453 3.089066,1.46298 5.27812,1.51678 1.253077,0.0308 2.365086,-0.0488 3.038011,-0.21751 3.752977,-0.9408 7.087611,-3.67055 8.914161,-7.29717 0.889573,-1.76624 1.641451,-4.71642 1.663558,-6.5272 0.0099,-0.81496 0.03726,-1.55338 0.06072,-1.64093 0.02345,-0.0875 2.163688,-0.15917 4.756068,-0.15917 h 4.71343 l -0.0406,0.59766 c -0.21647,3.18588 -1.5075,7.60605 -3.11838,10.67667 -4.35601,8.30331 -13.90123,13.85686 -22.283591,12.9649 -2.209707,-0.23513 -3.520338,-0.62072 -5.094213,-1.49874 l -1.277537,-0.71271 -2.160362,7.98193 c -1.188193,4.39006 -2.253462,8.22358 -2.36725,8.51893 -0.911105,2.36477 -2.559556,4.79469 -4.253649,6.27014 -1.915022,1.66787 -4.378038,2.79305 -6.721046,3.07038 l -0.933616,0.1105 z m 52.317854,-2.82432 c -4.56034,-0.82064 -7.35744,-3.331 -8.22356,-7.38051 -0.59763,-2.79425 -0.49301,-3.68044 1.23593,-10.46902 l 1.50803,-5.92139 h 4.74497 4.74497 l -1.47826,5.73191 c -1.43725,5.57288 -1.47309,5.75965 -1.29422,6.73227 0.25972,1.41182 1.30982,2.5892 2.73832,3.07023 0.9013,0.3035 1.48943,0.36238 2.93471,0.29381 l 1.80753,-0.0858 -1.08359,4.04403 -1.0836,4.04403 -1.40772,0.12671 c -1.83035,0.16476 -3.53596,0.10297 -5.14355,-0.18631 z m -61.89213,-11.81479 3.203636,-11.95613 h 4.648139 4.648138 l -2.119148,7.84271 c -1.652419,6.11541 -2.248531,8.10083 -2.706594,9.01471 -1.9489,3.88821 -5.533062,6.45322 -9.667557,6.9186 l -1.210248,0.13623 z m 72.31199,11.6608 c -0.10507,-0.18698 0.69209,-3.33206 2.89306,-11.41397 l 3.0381,-11.15586 5.11119,-2.8921 c 2.81115,-1.59066 5.18311,-2.89211 5.27102,-2.89211 0.0879,0 -0.24138,1.58386 -0.73172,3.5197 l -0.89151,3.5197 9.08022,-7.01552 9.08022,-7.01554 5.68533,-0.003 5.68534,-0.003 -3.47228,2.69378 c -1.90976,1.48158 -6.08326,4.64656 -9.27446,7.0333 -3.1912,2.38673 -6.059,4.53338 -6.37288,4.77034 l -0.57071,0.43082 1.50869,2.43007 c 0.82976,1.33654 1.72563,2.77114 1.99081,3.18801 1.55606,2.44616 6.77776,10.73685 7.92832,12.58807 0.74642,1.20097 1.3395,2.24937 1.31796,2.32976 -0.0215,0.0804 -2.52316,0.14618 -5.55915,0.14618 h -5.51999 l -0.5644,-0.80599 c -0.31043,-0.4433 -1.62177,-2.59631 -2.91409,-4.78448 -1.29234,-2.18817 -3.10994,-5.26598 -4.03912,-6.83958 l -1.68945,-2.86108 -2.54977,1.90548 -2.54977,1.90549 -1.48549,5.54393 c -1.4167,5.28719 -1.50492,5.55301 -1.90456,5.74008 -0.25061,0.1173 -2.01433,0.19615 -4.38751,0.19615 -3.11786,0 -3.99952,-0.0553 -4.11348,-0.25811 z m -3.45786,-20.78103 c -0.0412,-0.11784 0.14975,-0.83577 0.42449,-1.5954 0.27475,-0.75964 0.60239,-1.98841 0.72766,-2.7306 l 0.22861,-1.34944 -12.30753,-0.0487 -12.30753,-0.0487 1.43941,-0.84602 c 0.79167,-0.46531 2.23461,-1.3361 3.20653,-1.93509 l 1.76712,-1.08907 -0.95725,-0.87265 c -0.52649,-0.47996 -1.82308,-1.57033 -2.88132,-2.42305 l -1.92406,-1.55041 13.20053,-0.0487 13.20052,-0.0487 0.7159,-2.67177 c 0.57671,-2.1523 0.76013,-2.65286 0.9432,-2.57455 0.23982,0.10257 12.08848,9.72599 12.29648,9.98713 0.14158,0.17777 -1.47369,1.10952 -10.50126,6.05754 -3.6647,2.00863 -6.78321,3.73089 -6.93002,3.82724 -0.16821,0.1104 -0.29467,0.096 -0.34192,-0.0391 z m -37.796272,-2.8359 0.761584,-2.84227 H 66.243893 45.189077 l 0.582528,-1.84747 c 0.857674,-2.7201 2.043831,-4.23563 4.430759,-5.66112 1.973698,-1.1787 3.172955,-1.39719 7.669209,-1.39719 h 3.959215 l 0.653386,-2.43847 c 1.645088,-6.13955 4.762395,-10.87525 9.513908,-14.45319 2.08394,-1.56923 3.265602,-2.25653 5.492583,-3.19471 3.612799,-1.52199 8.766925,-2.26835 12.245907,-1.77333 l 0.846839,0.1205 -1.064747,3.97369 c -0.99452,3.7116 -1.084138,3.96444 -1.358749,3.83338 -0.547141,-0.26113 -4.39414,-0.25646 -5.678282,0.007 -1.913496,0.39243 -3.884957,1.30795 -5.433411,2.52319 -2.69621,2.11602 -4.049719,4.37458 -5.204647,8.68483 l -0.728075,2.71721 h 9.279537 9.279534 l 0.7612,-2.64453 0.761202,-2.64454 1.009293,0.82985 c 0.555112,0.45642 3.302265,2.66526 6.104778,4.90855 2.802526,2.24328 5.126356,4.16685 5.164076,4.27459 0.0385,0.11003 -1.37574,0.99883 -3.22618,2.02753 -4.942883,2.74783 -14.285823,7.83887 -14.385713,7.83887 -0.0482,0 0.255012,-1.27902 0.673884,-2.84227 z m 55.533512,-11.0154 c -1.61572,-1.35998 -3.24018,-2.69926 -3.60994,-2.97618 l -0.67227,-0.5035 2.3595,-8.62179 2.3594,-8.62179 h 4.45289 4.45288 l -3.061,11.60593 c -1.68349,6.38325 -3.12464,11.60234 -3.20236,11.59796 -0.0779,-0.004 -1.46338,-1.12066 -3.07909,-2.48063 z m -26.01978,-3.88743 c -0.0522,-0.0713 0.20481,-1.24809 0.5711,-2.61511 l 0.66598,-2.48549 5.3639,-2.86957 5.36391,-2.86958 -0.19183,1.06931 c -0.10548,0.58812 -0.7181,3.03343 -1.36134,5.43402 l -1.16952,4.36471 -4.5737,0.0507 c -2.51555,0.0279 -4.61632,-0.008 -4.6686,-0.0789 z"
         id="path2"
         inkscape:label="Logo" /><text
         xml:space="preserve"
         style="font-style:italic;font-variant:normal;font-weight:bold;font-stretch:normal;font-size:5.84036px;font-family:'Source Code Pro';-inkscape-font-specification:'Source Code Pro Bold Italic';writing-mode:lr-tb;direction:ltr;fill:url(#linearGradient21);fill-rule:nonzero;stroke:none;stroke-width:1.83948;stroke-dasharray:none;stroke-opacity:1"
         x="77.099739"
         y="183.10324"
         id="text20"
         inkscape:label="Text"><tspan
           sodipodi:role="line"
           id="tspan20"
           style="font-style:italic;font-variant:normal;font-weight:bold;font-stretch:normal;font-family:'Source Code Pro';-inkscape-font-specification:'Source Code Pro Bold Italic';stroke-width:1.83948;stroke:none;stroke-opacity:1;fill:url(#linearGradient21)"
           x="77.099739"
           y="183.10324">Functional Programming Toolkit</tspan></text></g></g></svg>
